<?xml version="1.0" encoding="utf-8"?>
<!-- Generator: Adobe Illustrator 19.0.0, SVG Export Plug-In . SVG Version: 6.00 Build 0)  -->
<svg version="1.1" id="Layer_1" xmlns="http://www.w3.org/2000/svg" xmlns:xlink="http://www.w3.org/1999/xlink" x="0px" y="0px"
	 viewBox="0 0 154.5 187.3" style="enable-background:new 0 0 154.5 187.3;" xml:space="preserve">
<style type="text/css">
	.st0{fill:#FFFFFF;}
</style>
<g id="XMLID_54_">
	<path id="XMLID_56_" class="st0" d="M151.1,163.8c0,0-1.1,6.5-4.9,9.2c-3.8,2.7-10.7,4-17.6,2.4c-6.8-1.5-15.8-7.5-19.3-13.7
		c-3.5-6.2-9.7-9.9-15.6-10.8c-4-0.7-12.2-0.1-17.1,1.6c-4.9-1.7-13-2.3-17.1-1.6c-5.9,1-12.1,4.6-15.6,10.8
		c-3.5,6.2-12.5,12.2-19.3,13.7c-6.8,1.5-13.8,0.3-17.6-2.4c-3.8-2.7-4.9-9.2-4.9-9.2s-2.8,10.3,4,15.4c6.8,5.1,14.5,6.7,21.8,6.6
		c7.3-0.1,15.9-1.8,21.2-3.4c5.3-1.6,9.1-2.6,16.7-6.6c1.8-1,8.7-4.4,10.8-5.8c2.1,1.4,9,4.9,10.8,5.8c7.5,4,11.4,5,16.7,6.6
		c5.3,1.6,13.8,3.3,21.2,3.4c7.3,0.1,15-1.4,21.8-6.6C153.9,174.1,151.1,163.8,151.1,163.8z"/>
	<path id="XMLID_55_" class="st0" d="M146.4,64.8c0-16.9-10.5-31.3-25.4-37.4c-6.4-14.3-20.8-24.2-37.5-24.2c-13,0-24.5,6-32,15.3
		c-22,0.3-39.7,17.9-39.7,39.6c0,18.7,13.1,34.3,30.8,38.5c-3.2,15.3-6.6,32.6-7.7,40.7c35.7-11.8,86.7-4,86.7-4s-3.4-14-6.9-29.1
		C132.8,100,146.4,84,146.4,64.8z"/>
</g>
</svg>
