<?xml version="1.0" encoding="utf-8"?>
<!-- Generator: Adobe Illustrator 19.0.0, SVG Export Plug-In . SVG Version: 6.00 Build 0)  -->
<svg version="1.1" id="Layer_1" xmlns="http://www.w3.org/2000/svg" xmlns:xlink="http://www.w3.org/1999/xlink" x="0px" y="0px"
	 viewBox="-281 373 48 48" style="enable-background:new -281 373 48 48;" xml:space="preserve">
<style type="text/css">
	.st0{fill:none;}
	.st1{fill:#E20707;}
</style>
<path class="st0" d="M-281,373h48v48h-48V373z"/>
<path class="st1" d="M-248,379c-3.5,0-6.8,1.6-9,4.2c-2.2-2.6-5.5-4.2-9-4.2c-6.2,0-11,4.8-11,11c0,7.6,6.8,13.7,17.1,23.1l2.9,2.6
	l2.9-2.6c10.3-9.3,17.1-15.5,17.1-23.1C-237,383.8-241.8,379-248,379z M-256.8,410.1l-0.2,0.2l-0.2-0.2
	c-9.5-8.6-15.8-14.3-15.8-20.1c0-4,3-7,7-7c3.1,0,6.1,2,7.1,4.7h3.7c1-2.7,4-4.7,7.1-4.7c4,0,7,3,7,7
	C-241,395.8-247.3,401.5-256.8,410.1z"/>
</svg>
